<svg width="110" height="110" viewBox="0 0 110 110" fill="none" xmlns="http://www.w3.org/2000/svg">
<path d="M62.9357 63.4888C59.8501 63.6668 56.7604 63.2152 53.8564 62.1618C50.9523 61.1084 48.2949 59.4754 46.0471 57.363C43.7994 55.2505 42.0086 52.7031 40.7846 49.877C39.5607 47.0509 38.9293 44.0056 38.9293 40.9278C38.9293 37.8501 39.5607 34.8048 40.7846 31.9786C42.0086 29.1525 43.7994 26.6051 46.0471 24.4926C48.2949 22.3802 50.9523 20.7472 53.8564 19.6938C56.7604 18.6404 59.8501 18.1889 62.9357 18.3668C64.8843 18.3523 66.8256 18.6066 68.7041 19.1226C63.077 15.0893 56.3063 12.9452 49.3734 13.0011C42.4404 13.0569 35.7053 15.3099 30.1446 19.4334C24.5838 23.5568 20.4861 29.3366 18.4456 35.9348C16.4051 42.533 16.5276 49.6069 18.7955 56.1311C21.0635 62.6553 25.3589 68.2908 31.0593 72.2208C36.7596 76.1508 43.5687 78.171 50.4995 77.9887C57.4302 77.8063 64.1226 75.4309 69.6066 71.2067C75.0906 66.9825 79.0812 61.129 81 54.4947C78.9029 57.2938 76.1768 59.5652 73.04 61.127C69.9031 62.6889 66.4427 63.4977 62.9357 63.4888Z" fill="url(#paint0_linear_1_779)"/>
<path d="M75 43C75 40.3478 74.1085 37.8043 72.5217 35.9289C70.9348 34.0536 68.7826 33 66.5385 33C68.7826 33 70.9348 31.9464 72.5217 30.0711C74.1085 28.1957 75 25.6522 75 23C75 24.3132 75.2189 25.6136 75.6441 26.8268C76.0693 28.0401 76.6926 29.1425 77.4783 30.0711C78.2641 30.9997 79.1969 31.7362 80.2235 32.2388C81.2501 32.7413 82.3504 33 83.4615 33C82.3504 33 81.2501 33.2587 80.2235 33.7612C79.1969 34.2638 78.2641 35.0004 77.4783 35.9289C76.6926 36.8575 76.0693 37.9599 75.6441 39.1732C75.2189 40.3864 75 41.6868 75 43Z" fill="url(#paint1_linear_1_779)"/>
<path d="M8.46155 78C8.46155 75.3478 7.57006 72.8043 5.98321 70.9289C4.39636 69.0536 2.24414 68 0 68C2.24414 68 4.39636 66.9464 5.98321 65.0711C7.57006 63.1957 8.46155 60.6522 8.46155 58C8.46155 59.3132 8.68041 60.6136 9.10564 61.8268C9.53087 63.0401 10.1541 64.1425 10.9399 65.0711C11.7256 65.9997 12.6584 66.7362 13.685 67.2388C14.7116 67.7413 15.8119 68 16.9231 68C15.8119 68 14.7116 68.2587 13.685 68.7612C12.6584 69.2638 11.7256 70.0004 10.9399 70.9289C10.1541 71.8575 9.53087 72.9599 9.10564 74.1732C8.68041 75.3864 8.46155 76.6868 8.46155 78Z" fill="url(#paint2_linear_1_779)"/>
<path fill-rule="evenodd" clip-rule="evenodd" d="M89.6337 46.6127C89.6337 45.232 90.753 44.1127 92.1337 44.1127H95.8661C101.369 44.1127 105.831 48.5741 105.831 54.0775C105.831 59.5809 101.369 64.0422 95.8661 64.0422H71.9787C70.598 64.0422 69.4787 62.923 69.4787 61.5422C69.4787 60.1615 70.598 59.0422 71.9787 59.0422H95.8661C98.608 59.0422 100.831 56.8194 100.831 54.0775C100.831 51.3355 98.608 49.1127 95.8661 49.1127H92.1337C90.753 49.1127 89.6337 47.9934 89.6337 46.6127ZM92.9928 94.3873C92.9928 95.768 94.1121 96.8873 95.4928 96.8873H99.2252C104.729 96.8873 109.19 92.4259 109.19 86.9225C109.19 81.4191 104.729 76.9577 99.2252 76.9577L60.7815 76.9578C59.4008 76.9578 58.2815 78.077 58.2815 79.4578C58.2815 80.8385 59.4008 81.9578 60.7815 81.9578L99.2252 81.9577C101.967 81.9577 104.19 84.1806 104.19 86.9225C104.19 89.6645 101.967 91.8873 99.2252 91.8873H95.4928C94.1121 91.8873 92.9928 93.0066 92.9928 94.3873ZM51.8238 81.9578C53.2045 81.9578 54.3238 80.8385 54.3238 79.4578C54.3238 78.077 53.2045 76.9578 51.8238 76.9578H43.6125C42.2318 76.9578 41.1125 78.077 41.1125 79.4578C41.1125 80.8385 42.2318 81.9578 43.6125 81.9578H51.8238ZM109.563 70.5C109.563 71.8807 108.444 73 107.063 73H94.3731C92.9924 73 91.8731 71.8807 91.8731 70.5C91.8731 69.1193 92.9924 68 94.3731 68H107.063C108.444 68 109.563 69.1193 109.563 70.5ZM84.6689 73C86.0496 73 87.1689 71.8807 87.1689 70.5C87.1689 69.1193 86.0496 68 84.6689 68L43.6125 68C42.2318 68 41.1125 69.1193 41.1125 70.5C41.1125 71.8807 42.2318 73 43.6125 73L84.6689 73Z" fill="url(#paint3_linear_1_779)"/>
<defs>
<linearGradient id="paint0_linear_1_779" x1="49" y1="13" x2="49" y2="78" gradientUnits="userSpaceOnUse">
<stop stop-color="#FDC500"/>
<stop offset="1" stop-color="#FD8900"/>
</linearGradient>
<linearGradient id="paint1_linear_1_779" x1="75" y1="23" x2="75" y2="43" gradientUnits="userSpaceOnUse">
<stop stop-color="#FDC500"/>
<stop offset="1" stop-color="#FD8900"/>
</linearGradient>
<linearGradient id="paint2_linear_1_779" x1="8.46154" y1="58" x2="8.46154" y2="78" gradientUnits="userSpaceOnUse">
<stop stop-color="#FDC500"/>
<stop offset="1" stop-color="#FD8900"/>
</linearGradient>
<linearGradient id="paint3_linear_1_779" x1="71" y1="37.5" x2="104.5" y2="101.5" gradientUnits="userSpaceOnUse">
<stop stop-color="#D7F0FF"/>
<stop offset="0.856457" stop-color="#0072DC"/>
</linearGradient>
</defs>
</svg>
