<svg width="129" height="99" viewBox="0 0 129 99" fill="none" xmlns="http://www.w3.org/2000/svg">
<path d="M79 41H111C116.523 41 121 36.5228 121 31V31C121 25.4772 116.523 21 111 21H106" stroke="url(#paint0_linear_19_258)" stroke-width="7" stroke-linecap="round" stroke-linejoin="round"/>
<g filter="url(#filter0_f_19_258)">
<ellipse cx="53.5" cy="67.5" rx="31.5" ry="9.5" fill="#4DB4FF"/>
</g>
<g filter="url(#filter1_bi_19_258)">
<path fill-rule="evenodd" clip-rule="evenodd" d="M77 30C77 30.7882 76.9696 31.5693 76.9099 32.3422C80.1949 29.6296 84.4071 28 89 28C99.4934 28 108 36.5066 108 47C108 57.158 100.029 65.4541 90 65.9741V66H89H19H17V65.896C7.44667 64.8966 0 56.8179 0 47C0 37.1618 7.47752 29.07 17.0593 28.0979C18.0405 12.4156 31.0704 0 47 0C63.5685 0 77 13.4315 77 30Z" fill="url(#paint1_linear_19_258)"/>
</g>
<path d="M64 54L115.5 54C121.023 54 125.5 58.4771 125.5 64V64C125.5 69.5228 121.023 74 115.5 74L110.5 74" stroke="url(#paint2_linear_19_258)" stroke-width="7" stroke-linecap="round" stroke-linejoin="round"/>
<path fill-rule="evenodd" clip-rule="evenodd" d="M107.678 50.5C107.204 53.0487 106.22 55.4185 104.838 57.5L64 57.5C62.067 57.5 60.5 55.933 60.5 54C60.5 52.067 62.067 50.5 64 50.5L107.678 50.5Z" fill="#E0F3FE"/>
<defs>
<filter id="filter0_f_19_258" x="0" y="36" width="107" height="63" filterUnits="userSpaceOnUse" color-interpolation-filters="sRGB">
<feFlood flood-opacity="0" result="BackgroundImageFix"/>
<feBlend mode="normal" in="SourceGraphic" in2="BackgroundImageFix" result="shape"/>
<feGaussianBlur stdDeviation="11" result="effect1_foregroundBlur_19_258"/>
</filter>
<filter id="filter1_bi_19_258" x="-7" y="-7" width="122" height="80" filterUnits="userSpaceOnUse" color-interpolation-filters="sRGB">
<feFlood flood-opacity="0" result="BackgroundImageFix"/>
<feGaussianBlur in="BackgroundImageFix" stdDeviation="3.5"/>
<feComposite in2="SourceAlpha" operator="in" result="effect1_backgroundBlur_19_258"/>
<feBlend mode="normal" in="SourceGraphic" in2="effect1_backgroundBlur_19_258" result="shape"/>
<feColorMatrix in="SourceAlpha" type="matrix" values="0 0 0 0 0 0 0 0 0 0 0 0 0 0 0 0 0 0 127 0" result="hardAlpha"/>
<feOffset dy="2"/>
<feGaussianBlur stdDeviation="4"/>
<feComposite in2="hardAlpha" operator="arithmetic" k2="-1" k3="1"/>
<feColorMatrix type="matrix" values="0 0 0 0 0 0 0 0 0 0.82 0 0 0 0 1 0 0 0 0.25 0"/>
<feBlend mode="normal" in2="shape" result="effect2_innerShadow_19_258"/>
</filter>
<linearGradient id="paint0_linear_19_258" x1="177" y1="70" x2="100" y2="41" gradientUnits="userSpaceOnUse">
<stop stop-color="#D7F0FF"/>
<stop offset="1" stop-color="#0072DC"/>
</linearGradient>
<linearGradient id="paint1_linear_19_258" x1="56" y1="89.5" x2="96.5" y2="1.95655e-07" gradientUnits="userSpaceOnUse">
<stop stop-color="#0082DF"/>
<stop offset="0.299998" stop-color="#48B2FF" stop-opacity="0.75"/>
<stop offset="1" stop-color="#3BADFF" stop-opacity="0"/>
</linearGradient>
<linearGradient id="paint2_linear_19_258" x1="76" y1="42.5" x2="141.5" y2="72" gradientUnits="userSpaceOnUse">
<stop stop-color="#E4F5FF"/>
<stop offset="0.82747" stop-color="#0072DC"/>
</linearGradient>
</defs>
</svg>
