<svg width="42" height="32" viewBox="0 0 42 32" fill="none" xmlns="http://www.w3.org/2000/svg">
<path d="M12.9783 26.6777C12.7644 26.6777 12.6218 26.6777 12.408 26.6064L7.0613 24.8954C6.63357 24.7529 5.70681 24.2538 6.13454 22.8281L8.84353 14.3447L17.0418 16.9824L14.3328 25.3945C14.1902 26.1074 13.6199 26.6064 12.9783 26.6777Z" fill="#F4A23F"/>
<path d="M17.084 17.0139L18.0226 14.0955L9.81046 11.4542L8.8718 14.3725L17.084 17.0139Z" fill="#FBCF4C"/>
<path d="M14.8318 16.2695L12.1941 24.539C12.0515 25.2519 11.4812 25.7509 10.7683 25.7509C10.5544 25.7509 10.4119 25.7509 10.198 25.6796L6.41968 24.4677C6.63354 24.6816 6.84741 24.7529 7.06128 24.8954L12.408 26.6064C12.5505 26.6777 12.7644 26.6777 12.9783 26.6777C13.6912 26.6064 14.2615 26.1074 14.4041 25.4658L17.113 17.0536L14.8318 16.2695Z" fill="#E28539"/>
<path d="M15.7585 13.4179L14.9031 16.1269L8.91479 14.2021L8.84351 14.3447L17.113 16.9824L18.0398 14.1308L15.7585 13.4179Z" fill="#EDB248"/>
<path d="M14.9743 30.6698C14.8318 30.6698 14.6179 30.6698 14.4753 30.5986L3.06908 26.8915C2.21361 26.6064 1.71459 25.6796 1.99974 24.8241C2.21361 24.1825 2.85521 23.6835 3.49681 23.6835L7.63158 10.7802L9.77025 11.4931L6.13451 22.7568C5.70677 24.1825 6.63353 24.6816 7.06127 24.8241L12.4079 26.5351C12.5505 26.6064 12.7644 26.6064 12.9783 26.6064C13.6911 26.5351 14.2615 26.0361 14.404 25.3945L18.0398 14.0595L20.1785 14.7724L15.9724 27.6757C16.5427 28.1034 16.7566 28.8163 16.5427 29.4579C16.3288 30.1708 15.6872 30.6698 14.9743 30.6698Z" fill="white"/>
<path d="M13.9763 26.1786L12.6931 30.0282L14.4753 30.5986C14.6179 30.6698 14.8318 30.6698 14.9744 30.6698C15.6873 30.6698 16.3289 30.2421 16.5427 29.5292C16.7566 28.8876 16.5427 28.1747 15.9724 27.747L20.1072 14.8437L17.9685 14.1308L14.3328 25.4658C14.2615 25.6796 14.1902 25.9648 13.9763 26.1786Z" fill="#F7EEBA"/>
<path d="M19.1091 14.3447C18.8953 14.3447 18.6814 14.3447 18.4675 14.2734L9.5564 11.4218C9.12866 11.2792 8.70093 10.9941 8.41577 10.6376C8.2019 10.2812 8.13062 9.92474 8.2019 9.49701C8.41577 8.92669 9.05737 8.49896 9.69897 8.57025C9.91284 8.57025 10.198 8.64154 10.4119 8.71283H10.4832C10.9109 7.71478 11.9089 7.14447 12.9783 7.21576C13.406 7.21576 13.7625 7.28705 14.1189 7.42962C15.0457 7.71478 15.8298 8.35638 16.2576 9.21185C16.4001 9.21185 16.5427 9.14056 16.6853 9.21185C16.9705 9.21185 17.2556 9.28314 17.5408 9.35443C18.1111 9.49701 18.5388 9.85345 18.8953 10.3525C19.1804 10.7089 19.2517 11.2079 19.1804 11.6357V11.707V11.6357L19.2517 11.707C19.7507 11.8495 20.1785 12.206 20.3923 12.6337C20.5349 12.9189 20.6062 13.204 20.4636 13.4892C20.2498 14.0595 19.6794 14.3447 19.1091 14.3447Z" fill="white"/>
<path d="M20.3923 12.6337C20.1072 12.206 19.7507 11.8495 19.2517 11.707L19.1804 11.6357V11.5644C19.323 11.1367 19.1804 10.6376 18.8953 10.2812C18.5388 9.85346 18.1111 9.49701 17.5408 9.28314C17.2556 9.21185 16.9705 9.14056 16.6853 9.14056C16.5427 9.14056 16.4001 9.14056 16.2576 9.14056C15.8298 8.2851 15.0457 7.57221 14.1189 7.35834C13.7625 7.21576 13.3347 7.14447 12.9783 7.14447C12.5505 7.14447 12.1228 7.21576 11.6951 7.42963C11.8376 7.42963 11.9089 7.50092 12.0515 7.50092C12.9783 7.78607 13.7625 8.42767 14.1902 9.28314C14.3328 9.28314 14.4753 9.21185 14.6179 9.28314C14.9031 9.28314 15.1882 9.35443 15.4734 9.42572C16.0437 9.5683 16.4714 9.92474 16.8279 10.4238C17.113 10.7802 17.1843 11.2792 17.113 11.707V11.7783V11.8495L17.1843 11.9208C17.6834 12.0634 18.1111 12.4199 18.325 12.8476C18.4675 13.1328 18.5388 13.4179 18.3962 13.7031C18.325 13.8456 18.2537 14.0595 18.1111 14.1308L18.4675 14.2734C18.6814 14.3447 18.8953 14.3447 19.1091 14.3447C19.6794 14.416 20.2498 14.0595 20.4636 13.4892C20.5349 13.204 20.5349 12.9189 20.3923 12.6337Z" fill="#F7EEBA"/>
<path d="M26.9509 30.6699C26.238 30.6699 25.5964 30.2421 25.3826 29.5292C25.1687 28.8876 25.3826 28.1747 25.9529 27.747L21.8181 14.8437L23.9568 14.1308L27.5925 25.4658C27.7351 26.1787 28.3054 26.6777 29.0183 26.6777C29.2322 26.6777 29.3748 26.6777 29.5886 26.6064L34.9353 24.8955C35.363 24.7529 36.2898 24.2538 35.8621 22.8281L33.0818 14.4872L33.0105 14.416V14.2021L32.0837 11.4218L34.2224 10.7089L38.4285 23.6835C39.3552 23.6835 40.0681 24.4677 39.9968 25.3945C39.9968 26.1074 39.4978 26.749 38.8562 26.8915L27.45 30.5986C27.3074 30.6699 27.0935 30.6699 26.9509 30.6699Z" fill="white"/>
<path d="M39.9255 24.8242C39.7117 24.1826 39.1414 23.6835 38.4285 23.6835L34.2937 10.7802L32.155 11.4931L33.0818 14.2734V14.3447V14.4872L33.1531 14.5585L35.7908 22.8281C35.8621 23.0419 35.9333 23.3271 35.9333 23.541L37.1453 27.4619L38.9275 26.8915C39.783 26.6064 40.2107 25.6796 39.9255 24.8242Z" fill="#F7EEBA"/>
<path d="M24.8464 17.0143L33.0575 14.3713L32.1182 11.4534L23.9072 14.0964L24.8464 17.0143Z" fill="#FBCF4C"/>
<path d="M30.0164 12.206L30.9431 15.0576L33.0818 14.3447L32.155 11.4931L30.0164 12.206Z" fill="#EDB248"/>
<path d="M22.8162 14.3447C22.2459 14.416 21.6755 14.0595 21.4617 13.4892C21.3904 13.204 21.3904 12.9189 21.533 12.6337C21.7468 12.206 22.1746 11.8496 22.6736 11.707H22.7449H22.8162V11.6357C22.6736 11.1367 22.7449 10.6376 23.03 10.2812C23.3865 9.85346 23.8142 9.49702 24.3845 9.28315C24.6697 9.21186 24.9548 9.14057 25.24 9.14057C25.3826 9.14057 25.5252 9.14057 25.6677 9.14057C26.0955 8.2851 26.8797 7.57221 27.8064 7.35835C28.1629 7.21577 28.5906 7.14448 28.947 7.14448C29.9451 7.07319 30.9431 7.6435 31.3709 8.57026H31.5134C31.7273 8.49897 32.0125 8.42768 32.2263 8.42768C32.8679 8.35639 33.5095 8.71284 33.7234 9.35444C33.866 9.71088 33.7947 10.1386 33.5095 10.4951C33.2244 10.9228 32.7966 11.208 32.3689 11.2792L23.4578 14.1308C23.2439 14.2734 23.03 14.3447 22.8162 14.3447Z" fill="white"/>
<path d="M33.7234 9.42573C33.4382 8.85542 32.8679 8.42768 32.2263 8.49897C32.0125 8.49897 31.7273 8.57026 31.5134 8.64155H31.3709C30.9431 7.71479 29.9451 7.14448 28.947 7.21577C28.5193 7.21577 28.1628 7.28706 27.8064 7.42964C26.8796 7.71479 26.0955 8.35639 25.6677 9.21186C25.5251 9.21186 25.3826 9.14057 25.24 9.21186C24.9548 9.21186 24.6697 9.28315 24.3845 9.35444C23.8142 9.49702 23.3865 9.85346 23.03 10.3525C22.8875 10.5664 22.7449 10.8515 22.7449 11.0654C22.8875 10.9941 22.9587 10.9941 23.1013 10.9228C23.3865 10.8515 23.6716 10.7802 23.9568 10.7802C24.0994 10.7802 24.2419 10.7802 24.3845 10.7802C24.8123 9.92475 25.5964 9.21186 26.5232 8.998C26.8796 8.85542 27.3074 8.78413 27.6638 8.78413C28.6619 8.71284 29.6599 9.28315 30.0876 10.2099H30.2302C30.4441 10.1386 30.7292 10.0673 30.9431 10.0673C31.5847 9.99604 32.2263 10.3525 32.4402 10.9941C32.4402 11.1367 32.5115 11.208 32.5115 11.3505C32.9392 11.208 33.2957 10.9228 33.5095 10.5664C33.7947 10.2099 33.866 9.85346 33.7234 9.42573Z" fill="#F7EEBA"/>
<path d="M28.947 26.6777C28.2341 26.6064 27.6638 26.1074 27.5212 25.4658L24.8123 17.0537L33.0818 14.3447L35.7908 22.7568C36.2898 24.1826 35.2917 24.6816 34.864 24.8242L29.5173 26.5351C29.3035 26.6064 29.1609 26.6777 28.947 26.6777Z" fill="#F4A23F"/>
<path d="M35.7908 22.7568L33.0818 14.3447L30.9431 15.0576L33.6521 23.4697C34.0798 24.8242 33.2957 25.3232 32.8679 25.4658L34.864 24.8242C35.2917 24.6816 36.2185 24.2538 35.7908 22.7568Z" fill="#E28539"/>
<path d="M40.1394 13.4892C39.9256 12.705 39.4265 11.9921 38.7136 11.5644C38.2146 11.2792 37.573 11.2792 37.0027 11.4931L35.4343 11.9921L35.0066 10.5664C34.9353 10.3525 34.7927 10.1386 34.5076 10.1386C34.5789 9.85346 34.5076 9.5683 34.4363 9.21186C34.0086 8.14252 32.8679 7.57221 31.7986 7.85737C31.157 6.93061 30.0877 6.43158 28.947 6.50287C28.448 6.50287 28.0203 6.57416 27.5213 6.71674C26.5945 7.0019 25.739 7.6435 25.24 8.49897C24.8836 8.49897 24.5271 8.57026 24.1707 8.64155C23.4578 8.85541 22.8875 9.28315 22.4597 9.85346C22.1746 10.2812 22.032 10.7802 22.032 11.2792C21.6043 11.4931 21.2478 11.8496 21.0339 12.2773C20.8201 11.8496 20.4636 11.4931 19.9646 11.2792C19.9646 10.7802 19.822 10.2812 19.5369 9.85346C19.1091 9.28315 18.5388 8.85541 17.8259 8.64155C17.4695 8.57026 17.1131 8.49897 16.7566 8.49897C16.1863 7.6435 15.4021 7.07319 14.4754 6.78803C14.0476 6.64545 13.5486 6.57416 13.0496 6.57416C11.9089 6.50287 10.9109 7.0019 10.198 7.92865C10.0554 7.92865 9.91286 7.85737 9.69899 7.92865C8.77223 7.85737 7.84547 8.42768 7.48903 9.35444C7.41774 9.63959 7.34645 9.92475 7.41774 10.2812C7.20387 10.3525 6.99 10.4951 6.91871 10.7089L6.49098 12.1347L4.92262 11.6357C4.35231 11.4218 3.782 11.4931 3.21168 11.707C2.49879 12.1347 1.99977 12.8476 1.7859 13.6318L0.431409 17.7665C0.288831 18.123 0.217542 18.622 0.288831 19.121C0.288831 20.0478 0.930433 20.9033 1.85719 21.1171L3.42555 21.6162L2.92653 23.0419C1.64332 23.3984 0.930433 24.6816 1.28688 25.8935C1.50075 26.6777 2.07106 27.248 2.85524 27.5331L14.2615 31.2402C14.4754 31.3115 14.7605 31.3828 14.9744 31.3828C16.2576 31.3828 17.3269 30.3134 17.3269 29.0302C17.3269 28.4599 17.1131 27.9609 16.7566 27.5331L20.7488 15.0576C20.8201 14.8437 20.7488 14.6298 20.6775 14.4872C20.7488 14.416 20.8201 14.2734 20.8914 14.2021C20.9627 14.2734 21.0339 14.416 21.1052 14.4872C20.9627 14.6298 20.9627 14.8437 21.0339 15.0576L25.0974 27.5331C24.242 28.5312 24.3845 30.0283 25.3826 30.8124C26.0242 31.3115 26.8797 31.5253 27.5925 31.2402L38.9988 27.5331C40.2107 27.1767 40.9236 25.8222 40.5672 24.6103C40.3533 23.8261 39.7117 23.2558 38.9275 23.0419L38.4285 21.6162L39.9968 21.1171C40.8523 20.832 41.4939 20.0478 41.5652 19.121C41.5652 18.622 41.4939 18.123 41.3513 17.624L40.1394 13.4892ZM2.28492 19.7626C1.92848 19.6913 1.71461 19.4062 1.71461 19.0497C1.71461 18.6933 1.71461 18.4081 1.85719 18.0517L3.14039 13.9169C3.21168 13.4892 3.49684 13.1328 3.85328 12.8476C4.06715 12.7763 4.28102 12.7763 4.49489 12.8476L6.06325 13.3466L3.85328 20.2617L2.28492 19.7626ZM15.2595 27.5331C15.1882 27.8183 15.2595 28.1035 15.4734 28.3173C15.7586 28.5312 15.9011 28.9589 15.8298 29.3154C15.6873 29.8144 15.117 30.0996 14.6892 29.8857L3.28297 26.1787C2.78395 26.0361 2.49879 25.5371 2.64137 25.038C2.78395 24.6816 3.0691 24.3964 3.49684 24.3964C3.782 24.3964 4.06715 24.1826 4.13844 23.8974L8.13063 11.6357L8.91481 11.9208L8.20192 14.1308L5.49293 22.5429C4.99391 23.6122 5.49293 24.8955 6.56227 25.3945C6.70485 25.4658 6.77614 25.4658 6.91871 25.5371L12.2654 27.248C12.4793 27.3193 12.7644 27.3906 13.0496 27.3906C14.0476 27.3193 14.9031 26.6777 15.117 25.6796L17.8259 17.2675L18.5388 15.0576L19.323 15.2714L15.2595 27.5331ZM16.1863 17.4814L13.6912 25.1806C13.6199 25.3945 13.406 25.8935 12.9783 25.8935C12.8357 25.8935 12.7644 25.8935 12.6218 25.8222L7.27516 24.1113C6.77614 23.9687 6.63356 23.6122 6.84743 22.9706L9.34254 15.2001L16.1863 17.4814ZM9.77028 13.9169L10.2693 12.3486L15.117 13.9169L17.1131 14.5585L16.614 16.1269L9.77028 13.9169ZM18.6814 13.5605L9.77028 10.7089C9.48512 10.6376 9.19996 10.4238 8.9861 10.2099C8.84352 10.0673 8.84352 9.85346 8.84352 9.71088C8.9861 9.42572 9.34254 9.28315 9.6277 9.28315C9.77028 9.28315 9.98414 9.28315 10.1267 9.35444H10.2693C10.6257 9.49701 11.0535 9.28315 11.1961 8.9267C11.1961 8.9267 11.1961 8.9267 11.1961 8.85541C11.4812 8.21381 12.1941 7.78608 12.9783 7.85737C13.3347 7.85737 13.6199 7.92865 13.905 7.99994C14.6179 8.21381 15.2595 8.71283 15.5447 9.42572C15.6873 9.71088 15.9724 9.92475 16.3289 9.85346C16.614 9.78217 16.9705 9.85346 17.2556 9.92475C17.6834 10.0673 17.9685 10.2812 18.2537 10.6376C18.3963 10.8515 18.4675 11.0654 18.4675 11.3505L18.3963 11.4218C18.2537 11.7783 18.3963 12.206 18.7527 12.3486H18.824H18.8953C19.4656 12.4912 19.7507 12.9189 19.6795 13.204C19.6082 13.4892 19.1804 13.7031 18.6814 13.5605ZM22.1033 13.2753C22.032 12.9902 22.3172 12.5624 22.8875 12.4199H22.9588C23.3152 12.3486 23.6004 11.9208 23.4578 11.5644V11.4931V11.4218C23.3865 11.208 23.4578 10.9228 23.6004 10.7089C23.8142 10.3525 24.1707 10.1386 24.5984 9.99604C24.8836 9.92475 25.24 9.85346 25.5252 9.92475C25.8816 9.99604 26.1668 9.78217 26.3093 9.49701C26.6658 8.78412 27.2361 8.2851 27.949 8.07123C28.2341 7.99994 28.5906 7.92865 28.8757 7.92865C29.5886 7.85737 30.3015 8.21381 30.658 8.85541C30.7293 9.06928 30.8718 9.21186 31.0144 9.28315C31.2283 9.35444 31.4422 9.35444 31.5847 9.28315L31.656 9.21186C32.2263 8.99799 32.8679 9.21186 32.9392 9.5683C33.0105 9.78217 32.9392 9.92475 32.7966 10.0673C32.5828 10.3525 32.3689 10.4951 32.0125 10.5664L23.1013 13.4179C22.7449 13.7031 22.2459 13.5605 22.1033 13.2753ZM32.5828 15.2714L35.0779 22.9706C35.2918 23.6122 35.1492 23.9687 34.6502 24.1113L29.3035 25.8935C29.2322 25.8935 29.0896 25.9648 28.947 25.9648C28.5193 25.9648 28.3054 25.4658 28.2341 25.2519L25.739 17.4814L32.5828 15.2714ZM25.3113 16.1269L24.8123 14.5585L26.8084 13.9169L31.656 12.3486L32.155 13.9169L25.3113 16.1269ZM39.2127 25.038C39.3552 25.5371 39.0701 26.0361 38.6423 26.2499L27.2361 29.957C26.7371 30.0996 26.2381 29.8144 26.0242 29.3867C25.8816 29.0302 26.0242 28.6025 26.3806 28.3886C26.5945 28.1747 26.7371 27.8896 26.5945 27.6044L22.6736 15.3427L23.4578 15.1288L24.1707 17.3388L26.8797 25.7509C27.0935 26.749 27.949 27.4619 28.947 27.4619C29.2322 27.4619 29.4461 27.3906 29.7312 27.3193L35.0779 25.6083C36.2185 25.3232 36.8601 24.1113 36.575 22.9706C36.575 22.8281 36.5037 22.7568 36.4324 22.6142L33.7234 14.2021L33.0105 11.9921L33.7947 11.707L37.7156 23.9687C37.7869 24.2539 38.072 24.4677 38.3572 24.4677C38.7849 24.4677 39.1414 24.6816 39.2127 25.038ZM40.2107 18.9785C40.2107 19.3349 39.9256 19.6201 39.6404 19.6914L38.072 20.2617L35.8621 13.2753L37.4304 12.7763C37.6443 12.705 37.8582 12.705 38.072 12.7763C38.4285 13.0615 38.7136 13.4179 38.7849 13.8456L40.1394 18.0517C40.2107 18.3369 40.2107 18.6933 40.2107 18.9785Z" fill="#4A2328"/>
<path d="M20.8201 7.35834C21.2478 7.35834 21.533 7.07318 21.533 6.64545V1.15619C21.533 0.728454 21.2478 0.443298 20.8201 0.443298C20.3923 0.443298 20.1072 0.728454 20.1072 1.15619V6.64545C20.1072 7.07318 20.4636 7.35834 20.8201 7.35834Z" fill="#4A2328"/>
<path d="M22.8875 7.85738C23.2439 8.07125 23.6717 7.92867 23.8142 7.57223L26.6658 2.08297C26.8084 1.72653 26.6658 1.29879 26.3094 1.15621C25.9529 1.01364 25.5965 1.15622 25.4539 1.44137L22.6023 6.93063C22.4597 7.21578 22.6023 7.64352 22.8875 7.85738Z" fill="#4A2328"/>
<path d="M17.7547 7.57221C17.8972 7.92865 18.325 8.07123 18.6814 7.92865C19.0379 7.78607 19.1804 7.35834 19.0379 7.00189C19.0379 7.00189 19.0379 6.9306 18.9666 6.9306L16.115 1.44135C15.9011 1.0849 15.4734 1.01361 15.117 1.22748C14.8318 1.44135 14.6892 1.79779 14.8318 2.08295L17.7547 7.57221Z" fill="#4A2328"/>
</svg>
