<svg width="42" height="43" viewBox="0 0 42 43" fill="none" xmlns="http://www.w3.org/2000/svg">
<g id="icons8-facebook" clip-path="url(#clip0_1903_325)">
<path id="Vector" d="M21 0C9.40275 0 0 9.62663 0 21.5C0 32.2787 7.756 41.1797 17.8605 42.7348V27.1975H12.6648V21.5466H17.8605V17.7859C17.8605 11.5598 20.8232 8.82754 25.8772 8.82754C28.2975 8.82754 29.5785 9.01208 30.184 9.0945V14.027H26.7365C24.591 14.027 23.842 16.1107 23.842 18.4578V21.5466H30.1297L29.2775 27.1975H23.842V42.7796C34.0917 41.357 42 32.3844 42 21.5C42 9.62663 32.5972 0 21 0Z" fill="#DF8480"/>
</g>
<defs>
<clipPath id="clip0_1903_325">
<rect width="42" height="43" fill="white"/>
</clipPath>
</defs>
</svg>
