<svg width="53" height="53" viewBox="0 0 53 53" fill="none" xmlns="http://www.w3.org/2000/svg">
<g id="icons8-instagram">
<path id="Vector" d="M18.2188 5.52087C11.2173 5.52087 5.52087 11.2173 5.52087 18.2188V34.7813C5.52087 41.7828 11.2173 47.4792 18.2188 47.4792H34.7813C41.7828 47.4792 47.4792 41.7828 47.4792 34.7813V18.2188C47.4792 11.2173 41.7828 5.52087 34.7813 5.52087H18.2188ZM37.5417 13.25C38.7618 13.25 39.75 14.2383 39.75 15.4584C39.75 16.6774 38.7618 17.6667 37.5417 17.6667C36.3216 17.6667 35.3334 16.6774 35.3334 15.4584C35.3334 14.2383 36.3216 13.25 37.5417 13.25ZM26.5 15.4584C32.5884 15.4584 37.5417 20.4117 37.5417 26.5C37.5417 32.5884 32.5884 37.5417 26.5 37.5417C20.4117 37.5417 15.4584 32.5884 15.4584 26.5C15.4584 20.4117 20.4117 15.4584 26.5 15.4584ZM26.5 18.7709C25.485 18.7709 24.48 18.9708 23.5422 19.3592C22.6045 19.7476 21.7524 20.317 21.0347 21.0347C20.317 21.7524 19.7476 22.6045 19.3592 23.5422C18.9708 24.48 18.7709 25.485 18.7709 26.5C18.7709 27.5151 18.9708 28.5201 19.3592 29.4579C19.7476 30.3956 20.317 31.2477 21.0347 31.9654C21.7524 32.6831 22.6045 33.2524 23.5422 33.6409C24.48 34.0293 25.485 34.2292 26.5 34.2292C27.515 34.2292 28.5201 34.0293 29.4579 33.6409C30.3956 33.2524 31.2477 32.6831 31.9654 31.9654C32.6831 31.2477 33.2524 30.3956 33.6409 29.4579C34.0293 28.5201 34.2292 27.5151 34.2292 26.5C34.2292 25.485 34.0293 24.48 33.6409 23.5422C33.2524 22.6045 32.6831 21.7524 31.9654 21.0347C31.2477 20.317 30.3956 19.7476 29.4579 19.3592C28.5201 18.9708 27.515 18.7709 26.5 18.7709Z" fill="#DF8480"/>
</g>
</svg>
