<svg width="42" height="43" viewBox="0 0 42 43" fill="none" xmlns="http://www.w3.org/2000/svg">
<g id="icons8-twitter">
<path id="Vector" d="M42 7.70561C40.4277 8.41947 38.8486 8.95837 37.0986 9.14034C38.8486 8.06254 40.25 6.27087 40.9473 4.29724C39.1973 5.37504 37.4473 6.08891 35.5264 6.45284C33.7764 4.66117 31.5 3.58337 29.0527 3.58337C24.3223 3.58337 20.4736 7.52364 20.4736 12.3597C20.4736 13.0806 20.4736 13.7945 20.6514 14.3334C13.4736 13.9764 7.17774 10.5681 2.97363 5.19308C2.09863 6.45284 1.75 8.06254 1.75 9.67224C1.75 12.7237 3.32227 15.4112 5.59863 17.0209C4.19727 16.8389 2.80274 16.482 1.75 15.9431C1.75 15.9431 1.75 15.9431 1.75 16.125C1.75 20.4222 4.72363 24.0056 8.57227 24.7264C7.875 24.9014 7.17774 25.0834 6.30274 25.0834C5.77637 25.0834 5.25 25.0834 4.72363 24.9014C5.77637 28.4847 8.92773 30.9973 12.7764 30.9973C9.80273 33.3278 6.125 34.7556 2.09863 34.7556C1.40137 34.7556 0.697267 34.7556 0 34.5806C3.84863 37.0861 8.40137 38.5209 13.125 38.5209C29.0527 38.5209 37.625 25.0834 37.625 13.4375C37.625 13.0806 37.625 12.7237 37.625 12.3597C39.375 11.107 40.7764 9.49727 42 7.70561Z" fill="#DF8480"/>
</g>
</svg>
